<svg xmlns="http://www.w3.org/2000/svg" viewBox="0 0 200 200"><defs><style>.cls-1{fill:#a33;}.cls-2{fill:#ded0c8;}.cls-3{fill:#255c72;}.cls-4{fill:#d7c6b8;}</style></defs><g id="Layer_2" data-name="Layer 2"><g id="Layer_2-2" data-name="Layer 2"><path class="cls-1" d="M191.1,153.5c-2.58,4.43-14.17,25.64-39.92,27.54-21.83,1.61-43.4,13-49.49,16.43a3.45,3.45,0,0,1-3.38,0C92.23,194,70.65,182.65,48.83,181c-25.76-1.9-37.35-23.11-39.93-27.54s-13.84-27.92,0-53,9.34-35.26,5.8-42.86C12.19,52.2,7.57,45.37,5.1,41.86a3.29,3.29,0,0,1,.44-4.31L42.05,3a3.45,3.45,0,0,1,4.13-.44c6.93,4.15,29.27,15.19,52,1.09a3.38,3.38,0,0,1,3.57,0c22.77,14.1,45.11,3.06,52-1.09A3.47,3.47,0,0,1,158,3l36.51,34.53a3.3,3.3,0,0,1,.44,4.31,118.32,118.32,0,0,0-9.61,15.73c-3.54,7.6-8.05,17.72,5.8,42.86S193.67,149.07,191.1,153.5Z"/><path class="cls-2" d="M193,99.45c-11-20-10-30.07-7.5-36.89.55-1.5,1.18-2.84,1.76-4.1a117.59,117.59,0,0,1,9.42-15.41,5.32,5.32,0,0,0-.71-7L159.43,1.52A5.59,5.59,0,0,0,152.72.8,56.32,56.32,0,0,1,133.4,7.91a43.23,43.23,0,0,1-30.48-6,5.58,5.58,0,0,0-5.84,0,43.2,43.2,0,0,1-30.47,6A56.24,56.24,0,0,1,47.29.8a5.61,5.61,0,0,0-6.72.72L4.06,36.05a5.34,5.34,0,0,0-.71,7c2.47,3.51,7,10.18,9.41,15.41.54,1.15,1.11,2.38,1.63,3.73C17,69,18.27,79.06,7,99.45A55.52,55.52,0,0,0,.64,135a57.38,57.38,0,0,0,6.42,19.5l.22.37c12.54,21.72,29.43,27.33,41.39,28.22C70,184.7,91.25,195.89,97.25,199.28a5.61,5.61,0,0,0,5.5,0c6-3.39,27.23-14.58,48.58-16.15,12-.89,28.87-6.5,41.4-28.23l.21-.36a57.38,57.38,0,0,0,6.42-19.5A55.45,55.45,0,0,0,193,99.45ZM6.85,40.67A1.23,1.23,0,0,1,7,39.06L43.52,4.53a1.27,1.27,0,0,1,.88-.35,1.3,1.3,0,0,1,.68.19c4.26,2.55,15.4,8.31,29.13,8.31A47,47,0,0,0,99.35,5.43a1.28,1.28,0,0,1,1.31,0c24,14.84,47.59,2.94,54.27-1.06a1.3,1.3,0,0,1,1.56.16L193,39.06a1.22,1.22,0,0,1,.17,1.61c-2.55,3.63-7.22,10.53-9.79,16-.28.61-.58,1.25-.88,1.93h-165c-.3-.68-.6-1.32-.88-1.93C14.06,51.2,9.4,44.3,6.85,40.67Zm182.4,111.79-.21.38a59.16,59.16,0,0,1-11.16,14.32A43.51,43.51,0,0,1,151,179c-22.25,1.64-44.19,13.19-50.39,16.7a1.29,1.29,0,0,1-1.26,0C93.18,192.15,71.23,180.6,49,179a43.57,43.57,0,0,1-26.86-11.79A59,59,0,0,1,11,152.85l-.22-.39c-.59-1-14.26-25.1,0-51C17.09,90,20.25,80.51,20.45,72.49A29.84,29.84,0,0,0,18.83,62H181.17a29.63,29.63,0,0,0-1.61,10.51c.19,8,3.35,17.49,9.67,29C203.51,127.36,189.84,151.45,189.25,152.46Z"/><path class="cls-3" d="M189.25,152.46l-.21.38a59.16,59.16,0,0,1-11.16,14.32A43.51,43.51,0,0,1,151,179c-22.25,1.64-44.19,13.19-50.39,16.7a1.29,1.29,0,0,1-1.26,0C93.18,192.15,71.23,180.6,49,179a43.57,43.57,0,0,1-26.86-11.79A59,59,0,0,1,11,152.85l-.22-.39c-.59-1-14.26-25.1,0-51C17.09,90,20.25,80.51,20.45,72.49A29.84,29.84,0,0,0,18.83,62H181.17a29.63,29.63,0,0,0-1.61,10.51c.19,8,3.35,17.49,9.67,29C203.51,127.36,189.84,151.45,189.25,152.46Z"/><path class="cls-4" d="M50.1,140.65q0-19.79,8.51-29.46t25.48-9.67a46.72,46.72,0,0,1,9.1.69v11.26a37.74,37.74,0,0,0-8.17-.91c-4.91,0-8.93.73-12,2.19a14.86,14.86,0,0,0-7,6.47q-2.33,4.29-2.74,12.18h.6q4.59-7.76,14.71-7.75,9.08,0,14.23,5.61T98,146.76q0,10.67-6.12,16.9t-17,6.22a24.62,24.62,0,0,1-13.1-3.42,22.33,22.33,0,0,1-8.63-10A37.52,37.52,0,0,1,50.1,140.65Zm24.49,18a8.54,8.54,0,0,0,7-3q2.44-3,2.45-8.64a11.78,11.78,0,0,0-2.29-7.68q-2.3-2.81-6.94-2.81a10.71,10.71,0,0,0-7.44,2.79,8.45,8.45,0,0,0-3.08,6.47,14.52,14.52,0,0,0,2.89,9.17A9,9,0,0,0,74.59,158.62Z"/><path class="cls-4" d="M102,140.65q0-19.79,8.51-29.46T136,101.52a46.68,46.68,0,0,1,9.09.69v11.26a37.74,37.74,0,0,0-8.17-.91c-4.91,0-8.93.73-12,2.19a14.86,14.86,0,0,0-7,6.47q-2.33,4.29-2.74,12.18h.6q4.59-7.76,14.71-7.75,9.09,0,14.24,5.61t5.14,15.5q0,10.67-6.12,16.9t-17,6.22a24.64,24.64,0,0,1-13.11-3.42,22.31,22.31,0,0,1-8.62-10A37.36,37.36,0,0,1,102,140.65Zm24.49,18a8.54,8.54,0,0,0,7.05-3q2.46-3,2.46-8.64a11.78,11.78,0,0,0-2.3-7.68q-2.3-2.81-6.93-2.81a10.72,10.72,0,0,0-7.45,2.79,8.45,8.45,0,0,0-3.08,6.47,14.47,14.47,0,0,0,2.9,9.17A8.93,8.93,0,0,0,126.53,158.62Z"/><path class="cls-2" d="M26.62,32.83l.34-.12c2.22-.75,3.32-1.11,5.59-1.81a11.12,11.12,0,0,1,3.21-.56c2,0,4.47.9,4.52,5.2a7.69,7.69,0,0,1-2.71,6.15c1.89,3,2.92,4.74,5,8.42l.42.74-6.51.06-.14-.27c-1.48-2.85-2.22-4.21-3.59-6.62l-.42,0L32.35,51,26.63,51Zm5.65,6.39.29-.06a2.14,2.14,0,0,0,2-2.4c0-.91-.39-1.1-1-1.1a3.39,3.39,0,0,0-.83.12l-.53.13Z"/><path class="cls-1" d="M35.76,30.84c2.63,0,4,1.6,4,4.71a7.24,7.24,0,0,1-2.87,6c2.06,3.27,3.11,5,5.2,8.77l-5.36.06c-1.52-2.92-2.27-4.31-3.76-6.92l-1.19.14.05,6.83-4.72.06q0-8.67,0-17.34c2.22-.75,3.34-1.11,5.58-1.8a10.51,10.51,0,0,1,3.06-.54m-4,9,.88-.15a2.64,2.64,0,0,0,2.42-2.91c0-1-.5-1.59-1.46-1.59a4.39,4.39,0,0,0-1,.13l-.92.23c0,1.72,0,2.58,0,4.29m4-10a11.46,11.46,0,0,0-3.36.58c-2.26.7-3.36,1.06-5.61,1.82l-.68.23V51.53h1l4.72-.06h1v-1l0-4.06V45.2c1.06,1.87,1.78,3.22,3,5.67l.29.54h.61l5.36-.06H43.8L43,49.87c-2-3.54-3-5.29-4.77-8.1a8.22,8.22,0,0,0,2.57-6.23c-.06-5-3.17-5.7-5-5.7Zm-3,6.46.15,0a3.44,3.44,0,0,1,.71-.1c.32,0,.45,0,.46.6a1.62,1.62,0,0,1-1.3,1.85V36.3Z"/><path class="cls-2" d="M42.87,28l.38-.1c4.13-1.06,6.16-1.53,10.33-2.4l.6-.12.1,6.3-.43.07c-2.11.35-3.23.54-5.21.91l0,2.64c1.73-.26,2.77-.4,4.67-.66l.56-.07.1,6.27-.46,0-4.77.46,0,3.37L54,44.4l.51,0,.11,6.37h-.51l-10.38.09h-.49Z"/><path class="cls-1" d="M53.69,26c0,2.11.05,3.16.08,5.27-2.26.37-3.39.57-5.64,1,0,1.46,0,2.18.06,3.64,2.09-.32,3.13-.46,5.23-.74,0,2.1,0,3.15.08,5.25-2.09.18-3.14.28-5.23.49,0,1.75,0,2.62.07,4.36L54,44.9c0,2.14.06,3.21.09,5.35l-10.38.09-.33-22c4.11-1.06,6.17-1.54,10.32-2.4m1-1.22L53.48,25c-4.18.86-6.22,1.34-10.36,2.4l-.76.19v.79l.08,5.5.25,16.48v1h1l10.38-.09h1l0-1,0-2.68,0-2.67v-1l-1,0-4.62.25,0-2.39,4.3-.41.93-.08,0-.93-.08-5.25,0-1.12-1.12.15c-1.69.22-2.69.36-4.11.57V33c1.73-.31,2.82-.5,4.78-.82l.86-.14,0-.87,0-2.62,0-2.64,0-1.21Z"/><path class="cls-2" d="M59.33,31c-1.35.2-2.19.32-3.7.56l-.57.09L55,25.19l.41-.08c4.39-.89,8.88-1.64,13.33-2.24l.55-.08.1,6.94-.45.05-3.83.44.3,20.46-5.73,0Z"/><path class="cls-1" d="M68.76,23.36c0,2.37,0,3.55.08,5.92-1.71.19-2.57.29-4.28.5l.3,20.4-4.73,0-.3-19.8c-1.72.24-2.57.37-4.28.64,0-2.18,0-3.27-.08-5.45,4.39-.89,8.85-1.64,13.29-2.24m1-1.14-1.12.15c-4.46.6-9,1.36-13.36,2.25l-.82.17,0,.83,0,2.42,0,3,0,1.15L55.71,32l3.13-.47L59,40.32l.15,9.91,0,1h1l4.73,0h1l0-1L65.6,32.32l0-1.66L69,30.28l.9-.1v-.91l0-3,0-2.93V22.22Z"/><path class="cls-2" d="M70.78,22.59l.44-.06c2.33-.29,3.47-.42,5.8-.66a7.59,7.59,0,0,1,1.17-.09,6,6,0,0,1,4.37,1.82,9.13,9.13,0,0,1,2.28,6.54c-.09,3.37-1,6-2.83,7.83,1.67,3.86,3.38,7.87,5.07,11.93l.29.69-6.46,0-.12-.33c-1.48-4-2.24-6-3.69-9.75h-.35l.11,10.08-5.73,0Zm5.89,11.32.37,0c.87,0,2-.43,2-3.13,0-2-.9-2.22-1.67-2.22h-.27l-.47,0Z"/><path class="cls-1" d="M78.19,22.28c4.16,0,6.26,4,6.15,7.85-.09,3.17-1,5.87-2.93,7.72q2.66,6.1,5.21,12.24l-5.36,0C79.74,46,79,44,77.44,40l-1.2.05c0,4,.07,6,.11,10.06l-4.73,0Q71.46,36.6,71.28,23c2.31-.3,3.47-.43,5.79-.66a7.34,7.34,0,0,1,1.12-.09m-2,12.17.89-.06q2.49-.15,2.46-3.64c0-1.8-.74-2.71-2.17-2.71h-.31l-.94.08.07,6.32m2-13.17a7.61,7.61,0,0,0-1.25.1c-2.32.23-3.46.36-5.78.66l-.89.11V23l.19,14.79.15,12.33v1h1l4.72,0h1v-1l-.08-7.76c1,2.72,1.77,4.67,3,8.11l.24.65h.7l5.36,0h1.5l-.58-1.38c-1.66-4-3.32-7.9-4.94-11.64a11.86,11.86,0,0,0,2.74-7.91,9.63,9.63,0,0,0-2.42-6.91,6.45,6.45,0,0,0-4.73-2Zm-1.07,7.77h.24c.46,0,1.15,0,1.17,1.72,0,2.3-.83,2.57-1.36,2.62l0-4.33Z"/><path class="cls-2" d="M96.07,51a7.49,7.49,0,0,1-6.76-4C87.79,44.37,87,40.6,87,35.75s.71-8.59,2.21-11.23A7.69,7.69,0,0,1,96,20.29h.16a7.35,7.35,0,0,1,6.7,4c1.48,2.59,2.23,6.41,2.22,11.34s-.77,8.71-2.26,11.3a7.42,7.42,0,0,1-6.78,4Zm0-23.29c-2,0-3.09,2.72-3.07,8s1.05,7.82,3.06,7.82a2.39,2.39,0,0,0,2.22-1.74,16.62,16.62,0,0,0,.83-6.14,16.81,16.81,0,0,0-.84-6.19c-.51-1.17-1.22-1.74-2.16-1.74v-.5Z"/><path class="cls-1" d="M96.2,20.79a6.84,6.84,0,0,1,6.26,3.75q2.17,3.8,2.16,11.09t-2.2,11a6.91,6.91,0,0,1-6.34,3.79h0a7,7,0,0,1-6.33-3.77c-1.47-2.51-2.23-6.15-2.26-11s.68-8.41,2.14-11a7.2,7.2,0,0,1,6.42-4h.16M96.05,44h0a2.87,2.87,0,0,0,2.67-2,17.17,17.17,0,0,0,.87-6.34,17,17,0,0,0-.89-6.39,2.84,2.84,0,0,0-2.61-2h0c-2.4,0-3.59,2.88-3.57,8.49S93.7,44,96.05,44m.15-24.2H96a8.16,8.16,0,0,0-7.28,4.49c-1.56,2.75-2.3,6.5-2.27,11.47s.82,8.76,2.4,11.46a8.21,8.21,0,0,0,14.41,0c1.53-2.67,2.32-6.55,2.33-11.55s-.76-8.92-2.29-11.59a7.81,7.81,0,0,0-7.13-4.25ZM96.05,44V43c-2.09,0-2.55-4-2.56-7.32s.43-7.46,2.58-7.49h0c.49,0,1.17.15,1.73,1.44a16.44,16.44,0,0,1,.8,6,16.18,16.18,0,0,1-.79,5.94C97.27,42.82,96.59,43,96.06,43v1Z"/><path class="cls-2" d="M112.33,51a9.88,9.88,0,0,1-3.09-.43,9.12,9.12,0,0,1-2.61-1.49l-.19-.15,0-8.25.83.7A10.86,10.86,0,0,0,110,43.09a6.34,6.34,0,0,0,2.49.63h0a1.4,1.4,0,0,0,1.16-.4,1.79,1.79,0,0,0,.39-1.19,2,2,0,0,0-.15-.82,2.83,2.83,0,0,0-.54-.76,24.8,24.8,0,0,0-2.27-1.83,12.37,12.37,0,0,1-2.67-2.64A8.94,8.94,0,0,1,107,33.15a15.44,15.44,0,0,1-.42-3.82,10,10,0,0,1,1.92-6.46,6,6,0,0,1,4.8-2.16,4.78,4.78,0,0,1,.53,0,10.6,10.6,0,0,1,5.87,2.53l.26.21-.09.31c-.61,2.3-.91,3.45-1.51,5.77l-.19.74-.61-.48a7.6,7.6,0,0,0-4-1.94h-.13a1,1,0,0,0-.82.28,1.52,1.52,0,0,0-.32,1,1.89,1.89,0,0,0,.43,1.21,17.45,17.45,0,0,0,2.81,2.44,10.72,10.72,0,0,1,3.28,3.85,11.65,11.65,0,0,1,.89,5,12.72,12.72,0,0,1-.91,4.81,7.66,7.66,0,0,1-2.58,3.36A6.61,6.61,0,0,1,112.34,51Z"/><path class="cls-1" d="M113.34,21.21h.5a10.17,10.17,0,0,1,5.59,2.44c-.61,2.29-.91,3.44-1.51,5.76a8.07,8.07,0,0,0-4.27-2.05h-.15a1.51,1.51,0,0,0-1.21.46,2,2,0,0,0-.43,1.3,2.44,2.44,0,0,0,.53,1.52,20.53,20.53,0,0,0,2.9,2.53,9.94,9.94,0,0,1,3.13,3.66,11.28,11.28,0,0,1,.85,4.75,12.31,12.31,0,0,1-.87,4.62A7.2,7.2,0,0,1,116,49.35a6.09,6.09,0,0,1-3.65,1.13h0a9.13,9.13,0,0,1-2.93-.4,8.47,8.47,0,0,1-2.46-1.41c0-2.77,0-4.16,0-6.93a11.72,11.72,0,0,0,2.82,1.81,6.94,6.94,0,0,0,2.68.67h.05a1.85,1.85,0,0,0,1.5-.57,2.29,2.29,0,0,0,.51-1.52,2.56,2.56,0,0,0-.19-1,3.37,3.37,0,0,0-.63-.9c-.3-.3-1.08-.93-2.33-1.88a11.87,11.87,0,0,1-2.57-2.53A8.26,8.26,0,0,1,107.53,33a14.34,14.34,0,0,1-.41-3.69,9.4,9.4,0,0,1,1.81-6.14,5.48,5.48,0,0,1,4.41-2m0-1a6.44,6.44,0,0,0-5.18,2.34,10.42,10.42,0,0,0-2,6.78,15.91,15.91,0,0,0,.44,3.94,9.45,9.45,0,0,0,1.42,3.1,12.91,12.91,0,0,0,2.78,2.74c1.23.94,2,1.54,2.21,1.78a2.17,2.17,0,0,1,.44.62,1.55,1.55,0,0,1,.11.61,1.36,1.36,0,0,1-.27.88,1,1,0,0,1-.74.22,6.12,6.12,0,0,1-2.33-.58A11.22,11.22,0,0,1,107.61,41L106,39.58v2.16l0,4.94v2.47l.38.3A9.3,9.3,0,0,0,109.08,51a9.94,9.94,0,0,0,3.25.46,7.11,7.11,0,0,0,4.24-1.31,8.21,8.21,0,0,0,2.75-3.57,13.35,13.35,0,0,0,1-5,12.32,12.32,0,0,0-.93-5.17,11.17,11.17,0,0,0-3.44-4A18.16,18.16,0,0,1,113.18,30a1.38,1.38,0,0,1-.32-.9,1,1,0,0,1,.2-.65c.08-.1.34-.11.44-.11h.1a7.14,7.14,0,0,1,3.69,1.83l1.2,1,.39-1.49c.61-2.31.91-3.47,1.51-5.76l.17-.63-.51-.41a11.09,11.09,0,0,0-6.15-2.64,5.33,5.33,0,0,0-.56,0Z"/><path class="cls-2" d="M131.63,50.66l.15-10.88c-1.73-.11-2.79-.17-4.51-.26l-.13,11.12-5.75,0,.29-28.88.55.06c1.92.18,2.88.29,4.8.52l.45.05-.12,10.11c1.74.13,2.8.22,4.52.38L132,23l.57,0c1.91.28,2.87.43,4.78.75l.43.07-.41,26.83Z"/><path class="cls-1" d="M122.18,22.29c1.92.19,2.88.29,4.79.52,0,4.05-.07,6.08-.12,10.13,2.21.17,3.32.27,5.52.47.06-3.95.08-5.92.14-9.87,1.91.28,2.86.42,4.77.74l-.39,25.91-4.75,0,.15-10.85c-2.2-.14-3.3-.2-5.51-.31,0,4.45-.08,6.68-.13,11.14l-4.75,0q.13-13.92.28-27.83m-1-1.1v1.09l-.28,27.83v1h1l4.75,0h1v-1l.12-10.1,3.51.2-.05,3.32-.09,6.58v1h1l4.75,0h1v-1l.39-25.92v-.86l-.85-.14c-1.92-.32-2.86-.46-4.79-.74l-1.13-.16v1.14l-.12,8.79c-1.28-.12-2.22-.2-3.53-.3l.11-9.2v-.89l-.89-.11c-1.93-.23-2.88-.33-4.82-.52l-1.08-.11Z"/><path class="cls-2" d="M148.52,51.1a7.5,7.5,0,0,1-6.67-3.56c-1.48-2.32-2.19-5.72-2.13-10.1s.89-7.59,2.44-9.62A5.86,5.86,0,0,1,147,25.43a9.21,9.21,0,0,1,2,.23,10,10,0,0,1,6.55,4.64,16.58,16.58,0,0,1,2.09,9.12c-.06,3.77-.84,6.58-2.39,8.59a8.06,8.06,0,0,1-6.73,3.09Zm-.2-19.24c-1.67,0-2.55,2.06-2.62,6.13-.07,4.38.92,6.66,2.94,6.76h.17a2.22,2.22,0,0,0,2.05-1.24,10.47,10.47,0,0,0,.88-4.75,11.74,11.74,0,0,0-.74-5,3,3,0,0,0-2.23-1.85A2.3,2.3,0,0,0,148.32,31.86Z"/><path class="cls-1" d="M147,25.93a8.24,8.24,0,0,1,1.91.22,9.5,9.5,0,0,1,6.23,4.42,16,16,0,0,1,2,8.85c-.05,3.66-.81,6.38-2.28,8.28a7.56,7.56,0,0,1-6.33,2.9h-.05a7,7,0,0,1-6.26-3.33c-1.43-2.24-2.11-5.55-2-9.82s.84-7.38,2.33-9.33A5.36,5.36,0,0,1,147,25.93m1.77,19.33a2.71,2.71,0,0,0,2.49-1.5,10.83,10.83,0,0,0,.94-5,12.29,12.29,0,0,0-.79-5.24,3.4,3.4,0,0,0-3.13-2.18c-2,0-3,2.22-3.12,6.62q-.12,7.1,3.41,7.27h.2M147,24.93h0a6.32,6.32,0,0,0-5.27,2.59c-1.62,2.11-2.48,5.45-2.54,9.91s.67,8,2.19,10.38a8,8,0,0,0,7.1,3.79h.06a8.53,8.53,0,0,0,7.12-3.29c1.62-2.09,2.44-5,2.49-8.88A17,17,0,0,0,156,30a10.51,10.51,0,0,0-6.88-4.87,10.06,10.06,0,0,0-2.12-.24Zm1.77,19.33h-.14c-1.71-.09-2.53-2.19-2.47-6.26,0-2.1.36-5.63,2.12-5.63A2.44,2.44,0,0,1,150.54,34a11.24,11.24,0,0,1,.7,4.79,10,10,0,0,1-.81,4.51,1.73,1.73,0,0,1-1.62,1Z"/><path class="cls-2" d="M159.69,50.87,160,28.72l.62.18c2.41.66,3.58,1,6,1.72a10.25,10.25,0,0,1,5.09,3.18,7.35,7.35,0,0,1,1.73,4.9,5.55,5.55,0,0,1-1.89,4.62,6.31,6.31,0,0,1-4.07,1.27,9.41,9.41,0,0,1-1.17-.07l-.77-.08-.07,6.49ZM166,39.19a2,2,0,0,0,.41,0,1.29,1.29,0,0,0,.86-.28,1.65,1.65,0,0,0,.46-1.29,1.74,1.74,0,0,0-1.54-1.88l-.59-.14,0,3.48Z"/><path class="cls-1" d="M160.47,29.38c2.39.65,3.57,1,5.94,1.72a9.84,9.84,0,0,1,4.86,3,6.87,6.87,0,0,1,1.61,4.58,5,5,0,0,1-1.71,4.23,5.75,5.75,0,0,1-3.75,1.16A10.94,10.94,0,0,1,166.3,44L165,43.89l-.06,6.54-4.73,0q.13-10.5.28-21m5.9,10.35a1.72,1.72,0,0,0,1.18-.4,2.1,2.1,0,0,0,.64-1.66,2.22,2.22,0,0,0-1.92-2.37l-1.2-.29,0,4.53.86.15a2.77,2.77,0,0,0,.49,0m-6.88-11.66,0,1.29-.14,10.5-.14,10.5v1h1l4.72,0h1v-1L166,47l0-2,.22,0c.42,0,.84.07,1.23.07a6.79,6.79,0,0,0,4.38-1.38,6,6,0,0,0,2.08-5A7.84,7.84,0,0,0,172,33.49a10.78,10.78,0,0,0-5.33-3.34c-2.39-.73-3.56-1.07-6-1.74l-1.25-.34ZM166,38.7l0-2.27v-.16a1.25,1.25,0,0,1,1.13,1.39,1.2,1.2,0,0,1-.29.91.74.74,0,0,1-.53.16l-.33,0Z"/><path class="cls-4" d="M58.84,84.16v8.08h-6.1V70.05h7.4q9.19,0,9.2,6.55,0,3.86-3.83,6l6.58,9.67H65.17l-4.78-8.08Zm0-4.51H60c2.13,0,3.2-.92,3.2-2.77,0-1.53-1-2.3-3.13-2.3H58.84Z"/><path class="cls-4" d="M93.24,81.11c0,3.74-.93,6.57-2.8,8.52s-4.59,2.91-8.18,2.91-6.25-1-8.14-2.93-2.84-4.79-2.84-8.53.94-6.51,2.82-8.46,4.61-2.92,8.19-2.92,6.32,1,8.17,2.9S93.24,77.37,93.24,81.11Zm-15.53,0q0,6.44,4.55,6.44A3.93,3.93,0,0,0,85.7,86a8.48,8.48,0,0,0,1.12-4.87,8.49,8.49,0,0,0-1.14-4.91,3.89,3.89,0,0,0-3.39-1.59Q77.71,74.61,77.71,81.11Z"/><path class="cls-4" d="M114.48,70.05V83.4A8.84,8.84,0,0,1,112,90.15q-2.5,2.38-7.23,2.39t-7.09-2.32c-1.66-1.55-2.48-3.78-2.48-6.68V70.05h6.13v13a5.28,5.28,0,0,0,.89,3.41,3.89,3.89,0,0,0,5.35,0,5.56,5.56,0,0,0,.84-3.45v-13Z"/><path class="cls-4" d="M127.16,92.24h-6.1V75h-5.51v-4.9h17.1V75h-5.49Z"/><path class="cls-4" d="M147.26,92.24h-13.4V70.05h13.4v4.81H140v3.49h6.77v4.81H140v4.19h7.31Z"/></g></g></svg>